<?xml version="1.0" standalone="no"?>
<!DOCTYPE svg PUBLIC "-//W3C//DTD SVG 20010904//EN"
 "http://www.w3.org/TR/2001/REC-SVG-20010904/DTD/svg10.dtd">
<svg version="1.0" xmlns="http://www.w3.org/2000/svg"
 width="233.000000pt" height="216.000000pt" viewBox="0 0 233.000000 216.000000"
 preserveAspectRatio="xMidYMid meet">

<g transform="translate(0.000000,216.000000) scale(0.100000,-0.100000)"
fill="#000000" stroke="none">
<path d="M1825 2037 c-22 -8 -51 -19 -64 -26 -45 -25 -113 -95 -139 -146 -23
-44 -27 -62 -27 -145 0 -79 4 -103 23 -142 33 -68 94 -125 169 -160 59 -28 71
-30 146 -26 100 6 162 34 226 103 66 72 86 124 86 225 -1 98 -20 149 -85 223
-74 83 -232 128 -335 94z m213 -83 c168 -84 197 -309 55 -433 -164 -145 -413
-47 -439 172 -12 104 47 211 145 262 67 35 168 35 239 -1z"/>
<path d="M1880 1825 l0 -64 -67 -3 -68 -3 0 -35 0 -35 68 -3 67 -3 0 -64 0
-65 40 0 40 0 0 65 0 65 65 0 65 0 0 40 0 40 -65 0 -65 0 0 65 0 65 -40 0 -40
0 0 -65z"/>
<path d="M80 1923 c0 -29 1 -30 60 -36 106 -12 150 -27 195 -71 53 -51 63 -82
180 -566 47 -195 95 -386 106 -425 40 -134 75 -177 174 -214 54 -20 74 -21
525 -21 l470 0 0 29 0 28 -477 8 c-431 6 -482 9 -520 25 -43 19 -86 72 -98
123 l-7 27 533 0 c503 0 536 1 562 19 15 10 34 27 42 38 12 17 51 141 129 411
l15 52 -33 0 c-28 0 -35 -5 -40 -25 l-6 -25 -206 0 -206 0 7 158 c4 86 9 160
12 165 2 4 18 7 35 7 23 0 29 4 24 16 -3 9 -6 22 -6 30 0 12 -81 14 -540 14
-425 0 -540 3 -540 13 0 6 -13 39 -29 73 -51 109 -135 159 -283 171 l-78 6 0
-30z m815 -305 c7 -19 105 -679 105 -706 l0 -22 -166 2 -166 3 -89 364 c-49
200 -89 366 -89 368 0 1 90 3 200 3 151 0 202 -3 205 -12z m529 -110 c-3 -68
-7 -142 -10 -165 l-5 -43 -199 0 -198 0 -6 28 c-3 15 -12 77 -21 137 -9 61
-18 122 -21 138 l-6 27 236 0 236 0 -6 -122z m-19 -420 c-9 -223 13 -198 -175
-198 -88 0 -160 3 -160 8 0 4 -11 79 -25 166 -13 88 -22 163 -19 168 3 4 91 8
195 8 l189 0 -5 -152z m457 147 c6 -6 -61 -244 -84 -298 -16 -41 -42 -47 -190
-47 l-130 0 7 168 c4 92 9 170 12 175 5 8 377 10 385 2z"/>
<path d="M627 526 c-116 -43 -164 -184 -98 -289 38 -59 91 -87 166 -87 65 0
100 16 142 64 61 68 68 163 18 238 -45 68 -151 102 -228 74z m152 -91 c43 -39
55 -76 41 -127 -15 -53 -60 -90 -118 -96 -46 -4 -52 -2 -90 33 -47 42 -60 85
-42 139 17 53 64 86 122 86 41 0 54 -5 87 -35z"/>
<path d="M1646 525 c-80 -28 -129 -99 -129 -185 0 -61 17 -101 60 -142 92 -88
268 -51 312 65 16 40 13 133 -3 166 -31 60 -116 112 -181 111 -11 -1 -37 -7
-59 -15z m150 -88 c65 -59 56 -162 -19 -207 -88 -54 -197 9 -197 115 0 42 5
52 39 86 35 35 44 39 90 39 44 0 56 -5 87 -33z"/>
</g>
</svg>
