<?xml version="1.0" standalone="no"?>
<!DOCTYPE svg PUBLIC "-//W3C//DTD SVG 20010904//EN"
 "http://www.w3.org/TR/2001/REC-SVG-20010904/DTD/svg10.dtd">
<svg version="1.0" xmlns="http://www.w3.org/2000/svg"
 width="880.000000pt" height="794.000000pt" viewBox="0 0 880.000000 794.000000"
 preserveAspectRatio="xMidYMid meet">

<g transform="translate(0.000000,794.000000) scale(0.100000,-0.100000)"
fill="#000000" stroke="none">
<path d="M534 7530 c-97 -23 -158 -135 -123 -227 14 -38 57 -83 96 -99 26 -11
120 -14 466 -14 479 0 505 -3 606 -63 55 -33 132 -111 156 -158 8 -15 78 -242
155 -505 78 -264 170 -576 205 -694 391 -1325 603 -2056 670 -2314 49 -189 67
-242 130 -374 71 -148 138 -242 244 -345 134 -129 265 -198 441 -231 72 -14
262 -16 1586 -16 1637 0 1540 -3 1596 56 84 90 57 223 -57 275 -38 18 -103 19
-1546 19 -1503 0 -1507 0 -1575 21 -175 54 -323 213 -408 441 l-26 68 1793 3
c1670 2 1796 4 1856 20 159 43 259 120 354 275 107 173 196 363 750 1607 179
402 344 771 366 820 115 248 155 458 116 608 -44 168 -150 272 -317 312 -55
13 -398 15 -2611 15 -2518 0 -2548 0 -2587 -20 -21 -11 -48 -34 -61 -51 -23
-33 -36 -110 -25 -153 9 -37 56 -87 101 -107 38 -18 137 -19 2572 -19 1850 0
2539 -3 2557 -11 28 -13 36 -35 36 -102 0 -76 -28 -171 -97 -327 -36 -80 -197
-442 -358 -805 -513 -1155 -633 -1415 -722 -1559 -60 -98 -101 -133 -173 -146
-36 -7 -672 -9 -1850 -8 l-1794 3 -39 140 c-111 408 -486 1758 -682 2455 -75
267 -159 566 -186 665 -71 255 -76 268 -120 335 -90 134 -220 191 -479 210
-156 11 -970 12 -1016 0z"/>
<path d="M3512 2309 c-98 -15 -227 -66 -323 -130 -130 -88 -219 -192 -285
-334 -155 -336 -63 -733 225 -966 399 -324 995 -203 1230 251 71 136 86 203
86 380 0 150 -1 158 -34 253 -130 378 -501 603 -899 546z m270 -349 c129 -40
226 -123 288 -247 152 -309 -80 -683 -424 -683 -133 0 -234 41 -332 133 -155
144 -194 365 -98 556 37 75 114 159 182 198 109 64 262 81 384 43z"/>
<path d="M6474 2309 c-244 -35 -476 -203 -593 -428 -70 -135 -86 -205 -86
-371 0 -167 13 -228 75 -356 79 -163 203 -289 365 -370 129 -63 224 -86 365
-86 358 0 656 217 776 567 26 74 28 93 28 235 1 135 -2 164 -22 230 -125 400
-498 638 -908 579z m269 -349 c80 -25 173 -85 221 -145 88 -107 130 -257 107
-385 -42 -234 -238 -400 -471 -400 -232 1 -429 168 -471 400 -32 183 65 391
227 486 111 65 262 82 387 44z"/>
</g>
</svg>
