<?xml version="1.0" standalone="no"?>
<!DOCTYPE svg PUBLIC "-//W3C//DTD SVG 20010904//EN"
 "http://www.w3.org/TR/2001/REC-SVG-20010904/DTD/svg10.dtd">
<svg version="1.0" xmlns="http://www.w3.org/2000/svg"
 width="512.000000pt" height="512.000000pt" viewBox="0 0 512.000000 512.000000"
 preserveAspectRatio="xMidYMid meet">

<g transform="translate(0.000000,512.000000) scale(0.100000,-0.100000)"
fill="#000000" stroke="none">
<path d="M1905 4794 c-512 -79 -967 -381 -1234 -817 -297 -485 -342 -1053
-124 -1570 160 -381 476 -715 848 -897 485 -237 1024 -237 1510 0 55 27 134
72 177 100 42 27 80 50 85 50 4 0 310 -301 678 -670 l670 -670 142 142 143
143 -667 667 c-665 665 -666 666 -650 690 9 13 48 66 87 118 124 169 241 432
284 641 79 384 26 776 -153 1127 -261 512 -751 865 -1312 947 -130 18 -361 18
-484 -1z m403 -195 c349 -38 647 -171 895 -399 390 -360 562 -928 445 -1469
-119 -555 -550 -1003 -1095 -1142 -169 -43 -265 -52 -463 -46 -307 10 -554 88
-801 252 -459 306 -709 829 -667 1399 58 801 700 1401 1511 1415 43 0 121 -4
175 -10z"/>
</g>
</svg>
